# xmcd
#
# Track frame offsets: 
#        150
#        34348
#        49501
#        76936
#        93029
#        115609
#        137137
#        155959
#        177806
#        196158
#        220382
#        237179
#        265784
#        283180
#        298390
#        317062
#        337211
#
# Disc length: 4713 seconds
#
# Revision: 0
# Processed by: cddbd v1.5.2PL0 Copyright (c) Steve Scherf et al.
# Submitted via: ExactAudioCopy v0.95b3
#
DISCID=00126711
DTITLE=The Rolling Stones  - Girls, Pills And Powders [CD3]
DYEAR=1900
DGENRE=
TTITLE0=Claudine 2
TTITLE1=Fiji Jim take 2
TTITLE2=A Different Kind
TTITLE3=I need You
TTITLE4=Everlasting Is My Love take 3
TTITLE5=Never Make Me Cry take 2
TTITLE6=I Cna't Help It take 4
TTITLE7=Some People Tell Me
TTITLE8=Everlasting Is My Love take 1
TTITLE9=Disco Music
TTITLE10=Start Me Up take 2
TTITLE11=Hang Fire a.k.a.Lazy Bitch
TTITLE12=Shame Shame Shame
TTITLE13=Do You Think I Really Care a.k.a.Yello Cab take 1
TTITLE14=Black Limousine take 2
TTITLE15=Biscuit Blues
TTITLE16=It's All Wrong
EXTD=
EXTT0=
EXTT1=
EXTT2=
EXTT3=
EXTT4=
EXTT5=
EXTT6=
EXTT7=
EXTT8=
EXTT9=
EXTT10=
EXTT11=
EXTT12=
EXTT13=
EXTT14=
EXTT15=
EXTT16=
PLAYORDER=
